<svg width="31" height="30" viewBox="0 0 31 30" fill="none" xmlns="http://www.w3.org/2000/svg">
<path d="M8.97512 4.42539C8.97512 6.86953 6.96605 8.85077 4.48756 8.85077C2.00907 8.85077 0 6.86953 0 4.42539C0 1.98124 2.00907 0 4.48756 0C6.96605 0 8.97512 1.98124 8.97512 4.42539Z" fill="white"/>
<path d="M19.5948 4.42539C19.5948 6.86953 17.5857 8.85077 15.1073 8.85077C12.6288 8.85077 10.6197 6.86953 10.6197 4.42539C10.6197 1.98124 12.6288 0 15.1073 0C17.5857 0 19.5948 1.98124 19.5948 4.42539Z" fill="white"/>
<path d="M30.2145 4.42539C30.2145 6.86953 28.2054 8.85077 25.7269 8.85077C23.2485 8.85077 21.2394 6.86953 21.2394 4.42539C21.2394 1.98124 23.2485 0 25.7269 0C28.2054 0 30.2145 1.98124 30.2145 4.42539Z" fill="white"/>
<path d="M19.5948 14.8978C19.5948 17.3419 17.5857 19.3232 15.1073 19.3232C12.6288 19.3232 10.6197 17.3419 10.6197 14.8978C10.6197 12.4536 12.6288 10.4724 15.1073 10.4724C17.5857 10.4724 19.5948 12.4536 19.5948 14.8978Z" fill="#F08216"/>
<path d="M30.2145 14.8978C30.2145 17.3419 28.2054 19.3232 25.7269 19.3232C23.2485 19.3232 21.2394 17.3419 21.2394 14.8978C21.2394 12.4536 23.2485 10.4724 25.7269 10.4724C28.2054 10.4724 30.2145 12.4536 30.2145 14.8978Z" fill="#F08216"/>
<path d="M30.2145 25.3705C30.2145 27.8146 28.2054 29.7958 25.7269 29.7958C23.2485 29.7958 21.2394 27.8146 21.2394 25.3705C21.2394 22.9263 23.2485 20.9451 25.7269 20.9451C28.2054 20.9451 30.2145 22.9263 30.2145 25.3705Z" fill="white"/>
</svg>