<svg version="1.2" xmlns="http://www.w3.org/2000/svg" viewBox="0 0 90 28" width="90" height="28">
	<title>image</title>
	<style>
		.s0 { fill: #ffffff } 
	</style>
	<path fill-rule="evenodd" class="s0" d="m0.2 19c-0.3-0.4-0.3-1 0-1.4l10.1-16.5c0.6-1 2-0.9 2.4 0.1l9.3 20.1c0.3 0.7-0.1 1.6-0.9 1.8l-14.4 4.3c-0.6 0.2-1.2 0-1.5-0.5zm7.7 4.6c-0.1 0.4 0.3 0.7 0.7 0.6l9.9-3c0.3-0.1 0.4-0.4 0.3-0.7l-6.4-14.7c-0.2-0.5-0.8-0.4-0.9 0.1zm40.5-12.9h2.9v10.4h-2.9zm-0.1-2.7q0-1.4 1.6-1.4 1.5 0 1.5 1.4 0 0.6-0.4 1-0.4 0.4-1.1 0.4-1.6 0-1.6-1.4zm39.7 13l-0.6-1.4h-0.1q-0.7 0.9-1.4 1.3-0.8 0.3-2 0.3-1.5 0-2.4-0.8-0.8-0.9-0.8-2.5 0-1.6 1.1-2.4 1.2-0.8 3.5-0.9h1.8v-0.5q0-1.6-1.6-1.6-1.2 0-2.9 0.8l-0.9-1.9q1.7-0.9 3.9-0.9 2.1 0 3.2 0.9 1.1 0.9 1.1 2.7v6.9zm-0.8-4.8l-1.1 0.1q-1.2 0-1.8 0.4-0.6 0.4-0.6 1.3 0 1.2 1.3 1.2 1 0 1.6-0.6 0.6-0.6 0.6-1.5zm-14.7 4.8h-2.8v-6.1q0-1.1-0.4-1.7-0.4-0.5-1.2-0.5-1.1 0-1.6 0.8-0.4 0.8-0.4 2.6v4.9h-2.9v-10.4h2.2l0.4 1.3h0.1q0.4-0.7 1.2-1.1 0.8-0.4 1.8-0.4 2.4 0 3.2 1.5h0.2q0.5-0.7 1.3-1.1 0.8-0.4 1.8-0.4 1.8 0 2.7 0.9 0.9 0.9 0.9 2.9v6.8h-2.9v-6.1q0-1.1-0.3-1.7-0.4-0.5-1.2-0.5-1.1 0-1.6 0.7-0.5 0.8-0.5 2.4zm-15.6 0.2q-1.1 0-1.9-0.2-0.8-0.1-1.5-0.4v-2.4q0.7 0.4 1.7 0.7 1 0.2 1.8 0.2 1.5 0 1.5-0.9 0-0.3-0.2-0.5-0.2-0.2-0.7-0.5-0.5-0.3-1.3-0.6-1.2-0.5-1.8-0.9-0.5-0.5-0.8-1-0.3-0.6-0.3-1.4 0-1.4 1.1-2.1 1.1-0.8 3-0.8 1.9 0 3.7 0.8l-0.9 2.1q-0.7-0.4-1.4-0.6-0.7-0.2-1.4-0.2-1.2 0-1.2 0.7 0 0.4 0.4 0.7 0.4 0.2 1.7 0.8 1.2 0.5 1.8 0.9 0.6 0.4 0.8 1 0.3 0.5 0.3 1.3 0 1.6-1.1 2.4-1.1 0.9-3.3 0.9zm-10.1-8q-0.3-0.1-0.8-0.1-1.4 0-2.1 0.7-0.8 0.7-0.8 1.9v5.3h-2.8v-10.4h2.1l0.4 1.8h0.2q0.5-0.9 1.3-1.4 0.8-0.6 1.8-0.6 0.5 0 0.9 0.1zm-8.3-1.5q0 2.2-1.4 3.4-1.4 1.1-3.9 1.1h-1.2v4.8h-2.9v-13.5h4.3q2.5 0 3.8 1 1.3 1.1 1.3 3.2zm-6.5 2.2h0.9q1.3 0 2-0.6 0.7-0.5 0.7-1.5 0-1-0.6-1.5-0.5-0.5-1.7-0.5h-1.3z"/>
</svg>